# xmcd
#
# Track frame offsets:
#	150
#	10799
#	23108
#	37038
#	54509
#	64888
#	79441
#	93189
#	107549
#	117929
#	143077
#
# Disc length: 2668 seconds
#
# Revision: 1
# Processed by: cddbd v1.5.2PL0 Copyright (c) Steve Scherf et al.
# Submitted via: audiograbber 1.83.01
#
DISCID=8a0a6a0b
DTITLE=All Star Karaoke - ASK-102 The 60's Greatest Hits Vol. 1 [Disc 2]
DYEAR=2009
DGENRE=Karaoke
TTITLE0=The Beach Boys - Barbara Ann
TTITLE1=The Four Tops - Baby I Need Your Loving
TTITLE2=The McCoys - Hang On Sloopy
TTITLE3=The Righteous Brothers - Unchained Melody
TTITLE4=The Searchers - Love Potion #9
TTITLE5=The Supremes - Stop In The Name Of Love
TTITLE6=The Temptations - My Girl
TTITLE7=The Troggs - Wild Thing
TTITLE8=Tommy Jones and The Shondells - I Think We're Alone Now
TTITLE9=Wilson Pickett - Mustang Sally
TTITLE10=Data Track - Data Track
EXTD=
EXTT0=
EXTT1=
EXTT2=
EXTT3=
EXTT4=
EXTT5=
EXTT6=
EXTT7=
EXTT8=
EXTT9=
EXTT10=
PLAYORDER=
